<?xml version="1.0" standalone="no"?> <!DOCTYPE svg PUBLIC "-//W3C//DTD SVG 20010904//EN" "http://www.w3.org/TR/2001/REC-SVG-20010904/DTD/svg10.dtd"> <svg version="1.0" xmlns="http://www.w3.org/2000/svg" width="600.000000pt" height="600.000000pt" viewBox="0 0 600.000000 600.000000" preserveAspectRatio="xMidYMid meet"> <g transform="translate(0.000000,600.000000) scale(0.100000,-0.100000)" fill="#ffffff" stroke="none"> <path d="M3960 3553 c-39 -14 -40 -26 -40 -400 0 -350 1 -364 20 -383 44 -44 120 -11 120 53 1 24 0 521 0 678 0 40 -55 68 -100 52z m68 -19 l22 -15 0 -361 c0 -322 -2 -363 -17 -380 -20 -22 -61 -23 -85 -1 -17 15 -18 40 -18 379 l0 363 28 15 c35 19 43 19 70 0z"/> <path d="M1510 3537 c-20 -10 -26 -21 -28 -59 -4 -67 15 -78 139 -78 69 0 99 -4 102 -12 3 -8 6 -6 6 5 1 15 -10 17 -99 17 -115 0 -140 12 -140 66 0 58 6 59 307 59 260 0 275 -1 289 -19 20 -28 17 -63 -6 -86 -17 -17 -33 -20 -119 -20 -86 0 -99 -2 -103 -17 -3 -10 -3 -141 -2 -292 2 -266 -2 -316 -29 -333 -22 -14 -53 -8 -75 15 -21 22 -22 32 -25 307 l-2 285 -3 -291 -2 -291 23 -21 c36 -34 97 -27 116 14 7 17 11 123 11 319 l0 295 98 0 c114 0 131 8 139 66 5 36 2 43 -22 62 -27 21 -36 22 -289 22 -190 0 -268 -4 -286 -13z"/> <path d="M3226 3432 c-3 -5 1 -9 9 -9 8 0 12 4 9 9 -3 4 -7 8 -9 8 -2 0 -6 -4 -9 -8z"/> <path d="M3141 3398 c-13 -5 -34 -20 -47 -35 -21 -25 -25 -26 -62 -15 -102 31 -229 2 -304 -70 -24 -22 -53 -44 -64 -48 -36 -14 -94 6 -138 48 -66 64 -98 76 -201 77 -106 0 -158 -19 -218 -81 -127 -131 -115 -344 25 -454 57 -46 111 -64 188 -64 83 0 133 19 192 73 29 26 62 53 73 59 12 7 14 12 6 12 -7 0 -36 -21 -65 -47 -70 -63 -125 -86 -207 -86 -162 0 -279 114 -287 281 -4 63 -1 79 23 128 21 43 30 52 40 44 10 -8 15 -8 21 1 4 7 3 9 -4 5 -6 -3 -14 -2 -17 4 -9 14 14 42 28 33 5 -3 7 -2 4 4 -7 12 34 43 83 64 20 8 67 14 110 14 90 0 141 -21 214 -86 44 -39 55 -44 97 -44 43 0 53 5 91 42 86 84 210 115 312 78 40 -14 40 -14 69 21 37 43 88 48 113 9 19 -29 12 -59 -22 -95 l-23 -25 27 -55 c22 -45 27 -68 27 -131 0 -66 -4 -84 -33 -139 -29 -56 -31 -65 -17 -79 51 -57 58 -152 18 -232 -50 -97 -167 -159 -277 -145 -104 14 -214 93 -235 171 -23 86 72 119 115 39 22 -40 75 -79 121 -87 42 -8 119 16 143 43 31 35 43 85 29 112 -18 35 -27 37 -114 31 -106 -7 -164 11 -240 77 -31 28 -65 50 -75 50 -10 0 -25 3 -34 6 -9 3 -16 1 -16 -5 0 -6 14 -11 31 -11 24 0 44 -11 81 -46 78 -73 173 -102 273 -83 68 12 85 3 85 -48 0 -66 -56 -113 -135 -113 -57 0 -98 23 -138 79 -32 44 -42 51 -69 51 -90 -1 -100 -83 -20 -171 55 -61 123 -97 200 -105 228 -24 395 216 270 388 -10 14 -7 27 18 75 25 51 29 69 29 143 0 70 -4 93 -24 131 l-23 46 27 41 c21 31 25 48 20 71 -10 46 -49 66 -94 49z"/> <path d="M3724 3366 l-27 -33 -45 13 c-109 33 -231 5 -303 -71 -23 -24 -47 -41 -52 -38 -6 3 -7 1 -4 -4 4 -6 -3 -33 -15 -59 -43 -99 -20 -231 56 -322 63 -74 182 -113 281 -92 68 14 85 4 85 -49 -1 -65 -56 -111 -135 -111 -62 0 -103 23 -142 82 -24 36 -35 44 -65 46 -45 4 -78 -24 -78 -66 0 -39 51 -115 101 -152 127 -92 304 -72 408 46 77 87 83 207 14 286 -13 14 -11 21 11 56 53 84 59 207 16 298 l-22 45 26 28 c30 31 34 75 10 109 -11 16 -25 22 -54 22 -32 0 -44 -6 -66 -34z m110 8 c23 -23 19 -61 -10 -99 l-26 -34 27 -68 c36 -90 32 -165 -16 -258 l-33 -65 20 -22 c90 -102 36 -267 -112 -338 -70 -35 -179 -34 -249 2 -74 39 -145 120 -145 167 0 33 27 61 59 61 33 0 40 -6 74 -57 41 -64 108 -92 177 -73 53 14 97 54 110 98 13 49 -13 88 -56 85 -123 -9 -166 -4 -219 22 -180 87 -223 330 -84 466 26 25 64 54 85 64 55 26 151 31 210 11 l48 -16 36 35 c38 38 78 46 104 19z"/> <path d="M3739 3338 c0 -2 -2 -16 -4 -33 -4 -29 -3 -29 9 -7 6 12 16 19 21 15 5 -4 3 0 -4 10 -12 16 -20 21 -22 15z"/> <path d="M3480 3208 c-84 -43 -114 -150 -65 -235 76 -128 266 -101 304 44 23 85 -25 174 -108 202 -50 16 -81 14 -131 -11z m155 -14 c72 -34 100 -146 55 -219 -23 -37 -91 -75 -133 -75 -63 0 -132 54 -152 118 -12 40 4 106 33 141 49 58 122 71 197 35z"/> <path d="M3320 3195 c0 -5 5 -17 10 -25 5 -8 10 -10 10 -5 0 6 -5 17 -10 25 -5 8 -10 11 -10 5z"/> <path d="M3366 3187 c3 -10 9 -15 12 -12 3 3 0 11 -7 18 -10 9 -11 8 -5 -6z"/> <path d="M4363 3350 c-48 -11 -119 -57 -150 -95 -17 -21 -30 -30 -34 -23 -4 6 -7 0 -7 -13 0 -13 -7 -49 -16 -79 -11 -38 -16 -96 -16 -198 0 -138 1 -144 25 -167 13 -14 36 -25 50 -25 14 0 37 11 50 25 24 23 25 28 25 177 0 129 3 159 18 187 21 39 73 71 115 71 35 0 77 40 77 75 0 14 -11 37 -25 50 -25 26 -52 30 -112 15z m87 -10 c47 -25 48 -91 2 -108 -15 -6 -43 -13 -62 -17 -42 -7 -72 -30 -94 -73 -12 -24 -16 -61 -16 -171 0 -135 -8 -187 -33 -203 -22 -14 -53 -8 -76 13 -23 22 -23 25 -19 188 4 140 8 173 26 213 36 80 104 137 189 157 52 12 62 12 83 1z"/> <path d="M4225 3199 c-4 -6 -5 -12 -2 -15 2 -3 7 2 10 11 7 17 1 20 -8 4z"/> <path d="M2857 3299 c7 -7 15 -10 18 -7 3 3 -2 9 -12 12 -14 6 -15 5 -6 -5z"/> <path d="M3046 3302 c-3 -5 1 -9 9 -9 8 0 12 4 9 9 -3 4 -7 8 -9 8 -2 0 -6 -4 -9 -8z"/> <path d="M3105 3301 c-3 -5 -2 -12 3 -15 5 -3 9 1 9 9 0 17 -3 19 -12 6z"/> <path d="M2255 3216 c-164 -74 -124 -312 54 -324 67 -4 119 23 161 84 l26 39 119 3 c66 1 129 0 140 -2 11 -3 30 -24 43 -46 13 -23 34 -46 47 -52 14 -6 22 -14 20 -18 -3 -4 28 -6 68 -4 85 4 108 7 102 13 -3 2 9 19 25 37 56 65 60 144 9 215 -25 35 -89 68 -133 69 -48 0 -113 -38 -144 -83 l-28 -42 -131 -3 c-98 -2 -134 1 -142 10 -53 66 -76 88 -105 102 -41 19 -90 20 -131 2z m132 -15 c26 -12 52 -35 69 -61 16 -23 39 -46 52 -51 33 -13 210 -11 246 2 18 7 38 25 47 43 19 38 67 71 115 80 47 9 120 -26 151 -73 51 -77 13 -194 -74 -227 -76 -29 -143 -6 -187 65 -32 50 -58 57 -187 55 -99 -1 -149 -13 -149 -34 0 -5 -13 -25 -30 -43 -58 -67 -166 -73 -226 -13 -84 84 -56 223 51 261 53 19 72 18 122 -4z"/> <path d="M2743 2977 c0 -8 6 -14 14 -14 9 0 10 4 2 14 -6 7 -12 13 -14 13 -1 0 -2 -6 -2 -13z"/> <path d="M2453 2905 c0 -8 4 -12 9 -9 5 3 6 10 3 15 -9 13 -12 11 -12 -6z"/> <path d="M1736 2737 c3 -10 9 -15 12 -12 3 3 0 11 -7 18 -10 9 -11 8 -5 -6z"/> <path d="M4265 2741 c-3 -5 -2 -12 3 -15 5 -3 9 1 9 9 0 17 -3 19 -12 6z"/> <path d="M2814 2583 c16 -20 36 -23 36 -6 0 4 -3 3 -7 0 -3 -4 -16 1 -27 10 -21 18 -21 18 -2 -4z"/> </g> </svg>