<?xml version="1.0" standalone="no"?>
<!DOCTYPE svg PUBLIC "-//W3C//DTD SVG 20010904//EN"
 "http://www.w3.org/TR/2001/REC-SVG-20010904/DTD/svg10.dtd">
<svg version="1.0" xmlns="http://www.w3.org/2000/svg"
 width="2048.000000pt" height="2048.000000pt" viewBox="0 0 2048.000000 2048.000000"
 preserveAspectRatio="xMidYMid meet">
<metadata>
Created by potrace 1.16, written by Peter Selinger 2001-2019
</metadata>
<g transform="translate(0.000000,2048.000000) scale(0.100000,-0.100000)"
fill="#000000" stroke="none">
<path d="M13582 12160 c-69 -16 -172 -78 -172 -103 0 -6 -7 -19 -16 -28 -9
-10 -19 -31 -21 -46 -3 -16 -5 -573 -5 -1240 1 -920 3 -1217 13 -1235 11 -22
64 -77 104 -108 17 -13 18 -13 10 0 -4 8 3 5 17 -8 23 -21 34 -23 109 -21 96
2 113 7 151 42 15 14 29 22 32 19 3 -3 6 2 6 10 0 9 10 23 23 32 12 9 15 14 7
10 -9 -4 -6 3 6 17 12 13 25 40 30 59 13 54 15 2337 2 2385 -6 22 -11 45 -13
50 -15 67 -100 146 -175 163 -57 13 -61 13 -108 2z m108 -50 c48 -13 106 -63
133 -113 l21 -42 1 -1180 c0 -974 -2 -1187 -14 -1219 -17 -49 -76 -115 -118
-133 -76 -31 -193 -8 -255 49 -60 57 -56 -25 -59 1278 -3 1127 -3 1197 14
1235 25 55 54 84 112 111 53 25 108 30 165 14z"/>
<path d="M5240 12118 c-100 -27 -117 -35 -150 -70 -19 -21 -35 -41 -35 -45 -1
-5 -6 -17 -12 -28 -6 -11 -11 -63 -11 -115 -1 -82 3 -100 23 -136 40 -68 94
-110 152 -118 28 -3 59 -4 69 0 14 4 15 3 6 -4 -9 -6 9 -11 59 -14 76 -6 103
-2 93 13 -6 10 25 1 42 -12 9 -8 109 13 121 25 3 2 17 0 32 -6 14 -7 73 -14
131 -17 l105 -6 2 -989 c1 -544 3 -1007 5 -1028 1 -21 8 -44 15 -50 7 -5 11
-14 8 -18 -6 -9 39 -55 99 -100 18 -13 19 -13 12 0 -4 8 0 6 9 -5 13 -16 29
-20 105 -21 66 -2 92 2 101 12 6 8 15 12 19 9 4 -3 13 2 20 10 7 8 16 13 20
10 4 -2 18 7 30 20 13 14 21 25 17 25 -3 0 5 12 20 28 14 15 29 37 34 49 4 12
8 470 8 1019 0 946 1 999 18 1015 16 16 45 18 312 20 227 1 302 4 327 15 19 8
34 11 34 7 0 -16 102 94 115 124 18 42 18 204 0 248 -28 64 -91 119 -145 125
-158 16 -1753 24 -1810 8z m1820 -60 c24 -13 58 -40 74 -61 27 -33 31 -48 34
-112 5 -86 -9 -133 -51 -181 -60 -69 -56 -68 -427 -74 l-335 -5 -5 -1025 -5
-1025 -22 -41 c-46 -86 -131 -132 -225 -121 -57 7 -96 26 -138 69 -63 63 -60
2 -60 1123 0 813 -3 1025 -12 1026 -7 1 -159 2 -338 2 -275 2 -330 4 -360 18
-131 60 -171 240 -78 353 66 80 1 76 1008 76 l896 0 44 -22z"/>
<path d="M10697 11617 c-35 -10 -53 -26 -187 -174 -35 -38 -68 -45 -95 -21
-11 9 -40 20 -64 23 -24 3 -47 8 -52 11 -9 5 -88 16 -136 18 -11 1 -19 4 -17
7 6 10 -238 9 -271 -1 -16 -5 -46 -11 -65 -14 -19 -2 -46 -8 -60 -13 -14 -6
-31 -8 -39 -5 -8 2 -11 1 -8 -4 3 -5 -6 -10 -20 -10 -13 -1 -33 -10 -44 -20
-10 -9 -19 -14 -19 -10 0 3 -11 -1 -25 -10 -14 -9 -25 -13 -25 -10 0 4 -10 1
-22 -6 -13 -7 -26 -11 -29 -10 -4 0 -19 -10 -33 -23 -14 -13 -26 -21 -26 -17
0 4 -4 2 -8 -3 -4 -6 -23 -22 -42 -35 -19 -13 -73 -60 -120 -105 -98 -94 -153
-137 -183 -144 -12 -2 -74 -4 -137 -4 -144 -1 -182 15 -280 113 -101 103 -160
151 -173 144 -7 -4 -9 -4 -5 1 10 11 -38 47 -117 85 -38 19 -78 40 -87 48 -17
15 -148 38 -249 45 -21 1 -35 5 -33 9 2 3 -50 6 -116 6 -66 -1 -123 -5 -126
-9 -3 -5 -23 -9 -44 -9 -21 0 -51 -5 -66 -10 -15 -6 -44 -12 -65 -14 -21 -2
-74 -21 -116 -42 -43 -22 -81 -39 -86 -39 -4 0 -24 -13 -45 -30 -20 -16 -40
-29 -44 -27 -5 1 -8 -3 -8 -8 0 -6 -6 -10 -12 -10 -7 0 -44 -29 -83 -65 -38
-36 -67 -65 -62 -65 4 0 -1 -8 -10 -18 -10 -11 -21 -17 -25 -15 -5 2 -8 -2 -8
-10 0 -7 -9 -23 -20 -35 -12 -12 -18 -22 -14 -22 4 0 -4 -12 -18 -27 -14 -16
-36 -45 -47 -65 -12 -21 -30 -54 -41 -73 -11 -20 -20 -44 -20 -54 0 -10 -3
-21 -7 -25 -4 -3 -8 -14 -9 -22 -1 -9 -6 -23 -10 -32 -4 -9 -9 -25 -11 -35 -1
-10 -11 -32 -20 -50 -14 -26 -18 -64 -20 -207 -2 -164 6 -242 28 -282 5 -10 9
-29 9 -44 0 -14 10 -40 22 -57 13 -18 16 -27 7 -22 -11 6 -12 5 -1 -6 6 -7 12
-23 12 -35 0 -12 8 -32 18 -45 10 -13 24 -37 32 -54 8 -16 21 -38 29 -47 8
-10 11 -18 8 -18 -8 0 61 -92 77 -102 6 -4 7 -8 3 -8 -5 0 6 -15 24 -32 18
-18 36 -32 41 -31 4 2 7 -1 5 -6 -1 -5 20 -28 48 -52 27 -24 46 -38 41 -31
-10 17 63 -33 81 -56 9 -10 12 -11 7 -2 -4 8 4 5 18 -7 13 -13 30 -23 38 -23
8 0 25 -10 38 -22 14 -13 22 -16 17 -8 -5 8 3 5 16 -7 14 -13 41 -24 61 -25
20 -2 34 -6 32 -9 -2 -4 13 -10 34 -13 51 -9 63 -11 96 -25 16 -6 35 -10 42
-7 6 2 16 0 21 -5 15 -15 174 -22 238 -10 33 7 67 12 75 12 8 0 31 7 51 14 20
8 39 12 42 9 3 -3 18 1 34 9 15 8 33 12 40 10 6 -2 14 1 18 6 3 6 14 11 25 11
10 0 41 15 69 34 28 19 51 33 51 30 0 -18 170 116 255 201 100 99 129 120 204
144 43 14 138 14 146 1 4 -6 18 -10 33 -9 15 1 40 -4 56 -10 16 -6 31 -9 34
-7 9 9 42 -14 42 -29 0 -8 6 -14 13 -13 6 2 11 -3 9 -10 -1 -6 4 -11 10 -10 7
2 12 -3 10 -10 -1 -6 3 -11 9 -10 6 2 21 -13 33 -33 24 -42 149 -152 183 -162
4 -1 18 -12 32 -25 13 -12 26 -20 29 -17 3 3 11 0 18 -5 6 -6 22 -13 33 -15
12 -2 35 -14 52 -26 16 -11 33 -18 36 -15 3 3 12 1 19 -5 8 -6 21 -9 29 -5 10
4 14 2 9 -5 -4 -7 -1 -10 7 -7 8 3 27 -1 42 -9 16 -8 31 -12 34 -9 3 3 21 -1
40 -9 64 -27 366 -16 472 17 50 15 110 12 132 -8 32 -29 69 -115 69 -160 0
-23 -7 -61 -16 -85 -9 -24 -17 -50 -18 -57 -6 -31 -96 -123 -156 -158 -97 -57
-124 -65 -257 -69 -141 -4 -180 5 -279 70 -57 38 -174 156 -174 177 0 5 -4 7
-8 4 -4 -2 -9 5 -9 16 -3 37 -75 128 -118 149 -22 11 -51 27 -65 35 -33 19
-122 14 -175 -11 -49 -23 -121 -80 -130 -103 -4 -9 -9 -26 -10 -37 -2 -11 -9
-42 -16 -68 -11 -38 -11 -52 -1 -67 7 -11 12 -31 12 -45 0 -14 4 -33 8 -43 5
-9 19 -38 32 -65 13 -26 33 -58 45 -71 13 -14 21 -26 19 -29 -2 -2 14 -22 36
-45 22 -23 40 -45 40 -50 0 -11 64 -72 75 -72 6 0 27 -19 48 -42 21 -24 36
-36 32 -28 -4 8 1 6 10 -5 9 -11 20 -20 26 -20 6 0 20 -9 32 -21 22 -20 118
-70 147 -76 8 -2 21 -9 29 -16 7 -7 20 -11 27 -8 7 3 16 1 20 -5 3 -6 13 -8
21 -5 8 3 12 2 9 -3 -3 -4 11 -8 31 -9 19 -1 40 -5 47 -10 10 -7 37 -12 88
-15 9 -1 15 -4 12 -8 -6 -10 268 -8 287 1 8 5 33 11 55 14 94 13 147 26 192
49 26 13 69 35 95 48 27 12 53 31 58 41 5 10 14 18 20 18 38 0 212 161 277
257 45 67 82 140 82 163 0 9 6 22 13 29 8 10 8 12 0 7 -6 -3 0 15 15 41 25 45
27 57 29 186 2 76 -1 147 -7 157 -5 10 -10 33 -11 51 -1 19 -6 45 -11 59 -6
14 -14 34 -18 45 -24 62 -45 99 -85 153 -58 77 -58 101 -1 195 49 81 83 153
86 185 1 4 10 17 22 29 11 12 21 34 23 50 1 15 7 37 11 48 13 29 11 428 -2
510 -7 40 -27 101 -48 144 -20 41 -36 79 -36 85 0 6 -14 31 -30 55 -39 58 -40
102 -2 129 28 20 99 112 86 112 -4 0 1 9 11 20 10 11 15 20 12 20 -3 0 0 17 8
39 14 42 12 140 -5 171 -6 11 -8 20 -5 20 3 0 -1 13 -10 30 -15 29 -72 82 -88
80 -4 0 -22 6 -40 13 -39 17 -158 19 -210 4z m208 -44 c83 -42 119 -107 113
-207 -5 -89 -22 -125 -104 -215 -35 -40 -64 -81 -64 -93 0 -11 22 -59 50 -107
91 -158 131 -309 131 -497 1 -237 -53 -408 -187 -604 -38 -56 -54 -88 -48 -96
5 -7 37 -46 71 -88 188 -230 186 -598 -3 -863 -236 -331 -653 -478 -1073 -377
-104 24 -294 123 -383 198 -96 82 -198 208 -248 310 -35 68 -40 87 -40 145 1
137 81 221 212 221 97 0 167 -50 223 -160 73 -144 171 -229 316 -275 200 -63
424 -12 561 128 76 77 111 148 116 237 5 91 -11 142 -61 194 -56 59 -79 63
-185 36 -67 -18 -124 -24 -248 -28 -151 -4 -169 -2 -265 22 -117 30 -240 85
-331 147 -35 24 -110 91 -168 151 -131 135 -145 141 -330 142 -110 1 -142 -2
-170 -17 -20 -9 -85 -67 -145 -128 -211 -214 -413 -312 -673 -326 -309 -17
-625 118 -824 353 -79 92 -175 275 -208 395 -26 97 -37 236 -28 365 19 288
209 601 461 758 174 109 336 152 562 150 168 -2 246 -17 387 -78 130 -56 184
-95 322 -227 89 -85 145 -131 171 -140 25 -9 81 -14 150 -14 156 0 184 12 315
140 130 127 197 176 315 231 124 58 235 85 375 91 143 7 264 -9 378 -48 142
-49 142 -49 193 12 117 139 144 162 214 180 39 10 112 1 150 -18z"/>
<path d="M7821 10999 c-225 -44 -389 -195 -446 -409 -19 -72 -19 -230 0 -305
24 -89 73 -173 145 -246 113 -114 224 -160 391 -160 85 0 119 4 186 25 141 45
254 140 318 266 43 86 63 109 118 137 l52 27 376 -1 c207 -1 392 -4 410 -8 73
-15 114 -50 157 -132 111 -211 269 -314 483 -315 164 0 279 45 395 155 173
163 224 404 133 622 -91 218 -286 347 -524 348 -206 1 -394 -113 -484 -292
-49 -97 -91 -136 -165 -151 -38 -8 -173 -10 -423 -8 -359 3 -369 4 -410 26
-54 28 -79 56 -104 111 -47 106 -160 215 -279 268 -101 45 -230 62 -329 42z
m261 -57 c8 -6 27 -13 41 -14 14 -1 24 -5 21 -9 -4 -7 59 -41 71 -39 16 3 186
-197 177 -208 -14 -15 91 -127 109 -116 4 2 10 0 14 -6 3 -6 23 -17 43 -26 31
-12 96 -15 414 -13 212 0 380 5 384 10 3 5 18 9 34 9 16 0 32 5 35 10 3 6 14
10 23 10 19 0 82 58 82 76 0 6 18 34 40 60 22 27 40 53 40 59 0 15 109 118
142 135 15 7 24 18 21 24 -3 6 -3 8 2 4 4 -4 28 5 54 19 44 26 52 27 191 27
128 0 150 -2 188 -21 23 -12 39 -16 35 -10 -12 19 98 -73 156 -131 52 -52 131
-186 131 -223 0 -10 5 -21 10 -24 6 -3 10 -50 10 -105 0 -55 -4 -102 -10 -105
-5 -3 -10 -17 -10 -30 0 -13 -9 -40 -21 -59 -12 -20 -18 -36 -13 -36 4 0 -1
-9 -12 -21 -10 -12 -17 -23 -15 -26 5 -6 -100 -131 -110 -132 -4 -1 -37 -19
-73 -41 -36 -22 -72 -40 -79 -40 -7 0 -18 -5 -24 -11 -14 -14 -313 -13 -327 1
-6 6 -17 10 -25 10 -8 0 -24 9 -36 20 -11 11 -43 31 -70 45 -28 14 -46 25 -42
25 5 0 -9 20 -31 45 -22 25 -47 61 -56 79 -9 18 -22 39 -31 46 -8 7 -15 16
-15 21 0 18 -45 78 -71 93 -38 23 -109 44 -154 46 -86 3 -614 4 -675 0 -36 -2
-83 -12 -104 -22 -22 -10 -45 -18 -52 -18 -15 0 -84 -71 -84 -86 0 -27 -48
-101 -104 -161 -60 -65 -148 -116 -246 -143 -56 -15 -260 -16 -288 -1 -11 6
-29 11 -39 11 -10 0 -29 9 -43 20 -14 11 -31 20 -37 20 -23 0 -127 91 -150
131 -9 15 -20 26 -25 23 -4 -3 -8 1 -8 9 0 8 -7 28 -15 45 -19 38 -65 208 -65
242 0 14 7 53 16 85 9 33 18 71 19 84 2 13 8 28 14 34 6 6 11 19 11 29 0 10 5
18 10 18 6 0 10 5 10 10 0 27 156 195 180 195 5 0 57 21 124 50 38 17 287 15
308 -3z"/>
<path d="M12833 11616 c-18 -6 -54 -34 -80 -62 -111 -116 -142 -152 -136 -158
20 -19 -36 7 -68 32 -9 7 -44 15 -79 17 -35 3 -68 8 -73 12 -13 8 -64 16 -100
16 -17 0 -24 3 -17 7 7 4 -49 8 -123 8 -75 -1 -135 -4 -132 -7 2 -4 -4 -7 -13
-8 -63 -3 -98 -7 -107 -14 -6 -4 -30 -10 -54 -13 -23 -3 -49 -10 -57 -17 -8
-6 -14 -8 -14 -5 0 4 -14 -3 -32 -15 -17 -13 -28 -16 -23 -8 5 8 -1 5 -13 -5
-12 -11 -22 -15 -22 -11 0 4 -9 0 -20 -10 -11 -10 -20 -15 -20 -11 0 12 -57
-23 -63 -39 -4 -8 -15 -15 -25 -15 -18 0 -192 -143 -192 -158 0 -4 -21 -29
-46 -57 -25 -27 -52 -62 -60 -77 -8 -15 -25 -43 -38 -63 -13 -19 -32 -61 -42
-93 -9 -31 -23 -64 -30 -72 -16 -20 -44 -132 -44 -178 0 -20 -5 -73 -12 -118
-12 -85 0 -253 24 -319 6 -16 21 -61 34 -98 22 -62 38 -94 99 -206 24 -44 153
-201 165 -201 5 0 32 -22 61 -50 29 -27 56 -50 62 -50 5 0 25 -13 44 -30 18
-16 42 -30 53 -30 10 0 22 -5 25 -10 4 -6 10 -8 15 -5 5 3 12 0 15 -5 6 -9 44
-30 65 -35 3 0 16 -7 28 -14 13 -7 26 -10 29 -7 3 2 17 0 32 -6 14 -6 39 -12
55 -14 16 -2 34 -9 41 -14 13 -11 234 -15 320 -6 58 6 145 21 195 33 19 5 45
7 57 5 26 -4 77 -54 99 -97 19 -37 21 -123 4 -166 -19 -46 -88 -148 -119 -175
-22 -20 -147 -88 -161 -89 -3 0 -10 -3 -16 -7 -12 -8 -118 -21 -174 -22 -54 0
-144 14 -155 25 -5 5 -15 9 -21 9 -29 0 -143 77 -191 129 -29 31 -53 60 -53
64 0 5 -8 21 -19 35 -10 15 -21 39 -25 54 -10 44 -61 93 -131 127 -78 37 -138
40 -190 11 -20 -11 -42 -20 -49 -20 -8 0 -37 -21 -65 -46 -64 -57 -76 -97 -66
-213 6 -84 27 -144 59 -170 9 -7 13 -18 9 -24 -3 -6 -1 -7 5 -3 8 4 12 0 12
-12 0 -20 108 -160 124 -161 5 0 14 -10 20 -22 6 -12 14 -20 18 -18 3 2 15 -8
27 -22 11 -15 34 -32 51 -39 16 -7 27 -16 24 -21 -3 -5 -2 -8 3 -7 13 4 56
-22 76 -46 10 -11 15 -14 11 -6 -5 8 9 0 31 -18 22 -17 47 -32 55 -32 9 0 22
-6 29 -12 11 -11 12 -10 6 1 -5 8 7 4 26 -9 19 -14 36 -24 39 -24 3 1 16 -2
28 -7 13 -5 27 -7 32 -4 5 3 21 0 37 -6 29 -12 72 -21 110 -23 11 0 19 -4 17
-7 -6 -10 218 -9 251 2 17 5 44 11 60 13 17 2 41 7 55 10 14 4 36 8 50 10 42
4 84 18 100 32 8 7 17 13 20 13 26 0 131 52 137 68 3 7 9 11 13 8 4 -2 19 6
34 20 14 13 26 22 26 19 0 -3 14 4 30 16 17 12 27 26 24 32 -4 6 -2 8 4 4 6
-3 17 2 24 12 7 11 17 20 21 20 5 0 29 24 54 54 67 80 73 88 68 88 -3 0 3 8
14 19 22 22 115 210 107 218 -2 3 0 17 6 32 6 14 12 37 14 51 1 13 8 53 15 87
10 49 10 77 1 126 -7 34 -14 73 -17 87 -13 73 -28 115 -43 127 -9 8 -11 12 -4
8 25 -13 -68 134 -107 169 -25 23 -28 71 -6 112 8 16 15 25 15 19 0 -18 39 47
85 142 25 50 45 103 45 117 0 14 4 27 9 30 5 3 11 18 14 33 11 58 19 90 39
157 17 57 20 85 15 170 -3 63 -11 113 -21 132 -9 17 -17 43 -18 58 -1 14 -5
26 -8 26 -3 0 -7 8 -8 18 -4 34 -8 52 -15 58 -4 4 -7 18 -7 30 0 13 -4 26 -10
29 -5 3 -10 13 -10 21 0 19 -59 142 -71 150 -22 13 -8 68 29 110 78 89 97 113
97 121 1 4 9 24 20 43 26 47 28 159 3 187 -10 11 -18 24 -18 29 0 22 -63 84
-108 106 -54 27 -174 35 -229 14z m156 -27 c104 -22 178 -124 169 -231 -6 -76
-32 -121 -121 -215 l-78 -84 31 -52 c204 -342 218 -714 40 -1045 -23 -41 -54
-91 -69 -111 -15 -20 -36 -50 -46 -68 l-18 -31 60 -72 c112 -132 163 -266 163
-427 0 -113 -23 -210 -76 -320 -79 -164 -207 -303 -368 -397 -169 -99 -322
-139 -536 -139 -116 -1 -149 3 -234 26 -189 52 -338 137 -467 267 -214 217
-275 423 -161 543 49 52 96 69 178 65 105 -5 145 -34 204 -153 102 -202 276
-308 503 -307 206 2 392 110 466 272 65 141 34 294 -72 349 l-49 25 -83 -22
c-424 -111 -822 26 -1092 375 -54 70 -126 219 -157 325 -103 356 -5 737 256
996 94 93 152 134 263 187 115 55 165 72 278 91 169 30 417 3 569 -60 66 -28
81 -22 145 52 95 110 130 141 181 156 59 18 60 18 121 5z"/>
<path d="M12048 11000 c-78 -12 -199 -64 -257 -110 -200 -158 -264 -460 -149
-700 95 -197 277 -310 498 -310 162 0 296 56 402 169 111 117 159 237 159 396
0 109 -20 188 -68 275 -113 201 -352 316 -585 280z m260 -62 c6 -6 12 -7 12
-3 0 5 9 0 20 -10 11 -10 20 -14 20 -10 0 5 6 1 13 -10 8 -10 19 -15 24 -12 6
4 16 1 22 -7 7 -8 22 -17 35 -20 13 -3 31 -17 40 -31 9 -14 21 -23 26 -20 6 4
10 0 10 -8 0 -8 9 -22 20 -32 11 -10 20 -24 20 -30 0 -7 7 -18 15 -25 19 -15
45 -68 45 -90 0 -9 6 -22 13 -28 17 -18 16 -285 -2 -332 -27 -70 -41 -97 -56
-110 -8 -7 -15 -18 -15 -25 0 -22 -104 -114 -165 -146 -106 -55 -133 -60 -278
-56 -144 3 -164 7 -205 34 -15 10 -40 25 -57 33 -16 8 -52 38 -80 65 -115 114
-157 218 -156 382 1 58 6 113 11 124 6 10 8 19 5 19 -3 0 12 35 34 78 79 155
215 260 366 283 63 9 246 0 263 -13z"/>
<path d="M14953 11459 c-13 -4 -40 -10 -62 -13 -22 -3 -49 -9 -59 -15 -11 -6
-22 -7 -26 -4 -3 3 -15 -2 -26 -12 -11 -10 -20 -15 -20 -12 0 4 -17 -3 -37
-14 -20 -12 -44 -22 -53 -24 -30 -6 -180 -116 -248 -183 -56 -55 -172 -207
-173 -227 0 -2 -7 -22 -16 -42 -9 -21 -18 -44 -19 -51 -1 -8 -10 -22 -20 -33
-9 -10 -18 -32 -20 -49 -2 -18 -7 -36 -10 -42 -4 -6 -9 -25 -11 -42 -1 -17 -8
-56 -13 -86 -14 -75 -14 -1049 0 -1065 6 -7 13 -23 15 -36 4 -19 65 -91 65
-76 0 3 12 -5 28 -20 38 -35 58 -41 143 -41 51 1 79 5 92 16 9 8 17 11 17 7 0
-4 8 -1 18 8 9 8 21 15 27 14 10 -2 87 95 80 101 -2 3 2 14 10 25 12 17 14 89
15 401 0 350 11 613 27 676 3 14 7 31 9 38 1 8 9 21 17 30 8 10 21 31 30 47
17 34 112 136 130 139 45 10 66 20 60 29 -3 5 -2 7 4 4 5 -3 22 0 37 8 15 8
44 17 64 20 20 3 57 9 80 14 24 5 52 7 62 4 10 -3 21 0 24 6 4 6 17 11 28 11
11 0 41 20 66 45 24 25 41 45 37 45 -5 0 0 9 10 20 10 11 15 20 10 20 -4 0 -2
7 5 15 6 8 8 20 4 26 -4 7 -3 9 3 6 5 -3 10 25 10 74 1 44 -3 77 -8 73 -5 -3
-6 1 -4 8 9 23 -66 119 -110 142 -32 16 -61 20 -155 22 -63 1 -125 -2 -137 -7z
m267 -53 c31 -15 54 -37 75 -70 26 -42 29 -58 29 -120 0 -53 -6 -82 -22 -114
-29 -56 -91 -99 -150 -107 -200 -25 -290 -57 -367 -127 -64 -58 -109 -126
-144 -216 l-26 -67 -5 -511 -5 -511 -35 -52 c-99 -145 -299 -133 -383 24 -22
39 -22 47 -22 545 0 486 1 509 22 598 57 239 168 419 338 547 239 179 541 258
695 181z"/>
</g>
</svg>
